<svg width="32" height="32" viewBox="0 0 32 32" fill="none" xmlns="http://www.w3.org/2000/svg">
<path fill-rule="evenodd" clip-rule="evenodd" d="M15.552 1.68739C15.0185 1.69164 14.5017 1.87348 14.0832 2.20419L3.10235 10.8682C2.68277 11.1988 2.38547 11.6599 2.25755 12.1786L1.95356 13.4154C1.86591 13.7705 1.86057 14.1408 1.93793 14.4983C2.0153 14.8557 2.17333 15.1908 2.39996 15.4778L6.38396 20.5274C6.61047 20.8141 6.89944 21.0452 7.22885 21.2033C7.55826 21.3613 7.9194 21.4421 8.28476 21.4394L9.55996 21.4314C10.0932 21.4276 10.61 21.2463 11.0288 20.9162L22.0112 12.2522C22.4307 11.9216 22.728 11.4604 22.856 10.9418L23.16 9.70499C23.2473 9.35017 23.2526 8.98008 23.1752 8.62294C23.0978 8.2658 22.9399 7.93104 22.7136 7.64419L18.728 2.59139C18.5016 2.30443 18.2127 2.07295 17.8833 1.91462C17.5539 1.75629 17.1926 1.67529 16.8272 1.67779L15.552 1.68739ZM15.0736 3.46019C15.213 3.34976 15.3853 3.28896 15.5632 3.28739L16.8384 3.27939C16.9601 3.27849 17.0805 3.30541 17.1903 3.35809C17.3001 3.41078 17.3965 3.48783 17.472 3.58339L21.456 8.63459C21.5316 8.73033 21.5843 8.8421 21.6101 8.96135C21.6359 9.08059 21.6341 9.20416 21.6048 9.32259L21.3008 10.5594C21.2581 10.7323 21.159 10.886 21.0192 10.9962L10.0384 19.6618C9.8987 19.7716 9.72644 19.8319 9.54876 19.833L8.27355 19.8426C8.15177 19.8435 8.03139 19.8166 7.92159 19.7639C7.81178 19.7112 7.71546 19.6341 7.63996 19.5386L3.65436 14.4858C3.57873 14.3901 3.52601 14.2783 3.50022 14.159C3.47443 14.0398 3.47625 13.9162 3.50555 13.7978L3.80956 12.561C3.8522 12.3881 3.95129 12.2344 4.09115 12.1242L15.0736 3.46019ZM17.784 15.601L26.2016 26.2714C26.333 26.4378 26.393 26.6495 26.3684 26.8601C26.3438 27.0708 26.2366 27.263 26.0704 27.3946L24.8144 28.3866C24.7318 28.4518 24.6372 28.5002 24.536 28.5288C24.4348 28.5574 24.3289 28.5658 24.2244 28.5535C24.1199 28.5412 24.0189 28.5084 23.9271 28.4569C23.8354 28.4055 23.7546 28.3365 23.6896 28.2538L15.272 17.585L14.016 18.577L22.4336 29.2458C22.6288 29.4932 22.871 29.6998 23.1461 29.8536C23.4212 30.0075 23.7239 30.1056 24.037 30.1425C24.35 30.1793 24.6673 30.1542 24.9706 30.0684C25.2739 29.9826 25.5574 29.8379 25.8048 29.6426L27.0608 28.6506C27.56 28.2562 27.8823 27.6798 27.9567 27.0479C28.0311 26.4161 27.8515 25.7805 27.4576 25.281L19.04 14.6106L17.784 15.601Z" fill="black"/>
<path fill-rule="evenodd" clip-rule="evenodd" d="M10.5984 6.49561L9.11037 4.61081C8.97876 4.44455 8.78653 4.33734 8.57592 4.31274C8.36531 4.28814 8.15355 4.34816 7.98717 4.47961L6.73117 5.47161C6.56514 5.60294 6.45793 5.79474 6.43304 6.00497C6.40815 6.2152 6.4676 6.42672 6.59837 6.59321L8.08637 8.47801L6.82877 9.47001L5.34237 7.58521C5.14712 7.33771 5.00255 7.05417 4.9169 6.75079C4.83126 6.44742 4.80622 6.13013 4.84321 5.81708C4.88021 5.50402 4.97852 5.20131 5.13252 4.92625C5.28653 4.6512 5.49321 4.40917 5.74077 4.21401L6.99677 3.22201C7.49651 2.82819 8.13218 2.64893 8.76405 2.72364C9.39591 2.79835 9.97225 3.12091 10.3664 3.62041L11.8544 5.50361L10.5984 6.49561Z" fill="black"/>
</svg>
