<svg width="14" height="12" viewBox="0 0 14 12" fill="none" xmlns="http://www.w3.org/2000/svg">
<path d="M10.125 0.125C8.8125 0.125 7.67125 0.716875 7 1.70875C6.32875 0.716875 5.1875 0.125 3.875 0.125C2.88079 0.126158 1.92764 0.521618 1.22463 1.22463C0.521618 1.92764 0.126158 2.88079 0.125 3.875C0.125 5.7 1.2625 7.59937 3.50625 9.51937C4.53441 10.3955 5.64501 11.1699 6.8225 11.8319C6.87707 11.8612 6.93805 11.8765 7 11.8765C7.06195 11.8765 7.12293 11.8612 7.1775 11.8319C8.35499 11.1699 9.46559 10.3955 10.4937 9.51937C12.7375 7.59937 13.875 5.7 13.875 3.875C13.8738 2.88079 13.4784 1.92764 12.7754 1.22463C12.0724 0.521618 11.1192 0.126158 10.125 0.125ZM7 11.0694C5.97437 10.4775 0.875 7.3575 0.875 3.875C0.875827 3.0796 1.19216 2.31702 1.75459 1.75459C2.31702 1.19216 3.0796 0.875827 3.875 0.875C5.1425 0.875 6.20687 1.55187 6.65312 2.64187C6.68138 2.71065 6.72944 2.76948 6.7912 2.81088C6.85297 2.85228 6.92564 2.87439 7 2.87439C7.07436 2.87439 7.14703 2.85228 7.2088 2.81088C7.27056 2.76948 7.31862 2.71065 7.34688 2.64187C7.79313 1.55187 8.8575 0.875 10.125 0.875C10.9204 0.875827 11.683 1.19216 12.2454 1.75459C12.8078 2.31702 13.1242 3.0796 13.125 3.875C13.125 7.3575 8.02563 10.4775 7 11.0694Z" fill="black"/>
</svg>
