<svg width="13" height="12" viewBox="0 0 13 12" fill="none" xmlns="http://www.w3.org/2000/svg">
<path d="M12.7249 5.55476L1.72494 0.054759C1.63873 0.0116424 1.54189 -0.0056335 1.44608 0.00501157C1.35028 0.0156566 1.25959 0.0537688 1.18494 0.114759C1.11365 0.174505 1.06045 0.252952 1.0313 0.341281C1.00215 0.42961 0.998216 0.524318 1.01994 0.614759L2.49994 5.99976L0.999942 11.3698C0.979555 11.4453 0.977176 11.5245 0.992994 11.6012C1.00881 11.6778 1.04239 11.7496 1.09102 11.8109C1.13965 11.8722 1.20199 11.9212 1.27301 11.954C1.34403 11.9868 1.42176 12.0025 1.49994 11.9998C1.57821 11.9993 1.65528 11.9805 1.72494 11.9448L12.7249 6.44476C12.8068 6.4028 12.8756 6.33905 12.9236 6.26054C12.9716 6.18202 12.997 6.09178 12.997 5.99976C12.997 5.90774 12.9716 5.8175 12.9236 5.73898C12.8756 5.66047 12.8068 5.59672 12.7249 5.55476ZM2.27494 10.5548L3.37994 6.49976H7.99994V5.49976H3.37994L2.27494 1.44476L11.3799 5.99976L2.27494 10.5548Z" fill="black"/>
</svg>
