<svg width="32" height="32" viewBox="0 0 32 32" fill="none" xmlns="http://www.w3.org/2000/svg">
<path fill-rule="evenodd" clip-rule="evenodd" d="M9.84751 20.9273C8.26481 21.7186 7.66663 22.6268 7.66663 23.3327C7.66663 24.0385 8.26481 24.9467 9.84751 25.7381C11.3704 26.4995 13.5442 26.9993 16 26.9993C18.4557 26.9993 20.6295 26.4995 22.1524 25.7381C23.7351 24.9467 24.3333 24.0385 24.3333 23.3327C24.3333 22.6268 23.7351 21.7186 22.1524 20.9273C20.6295 20.1658 18.4557 19.666 16 19.666C13.5442 19.666 11.3704 20.1658 9.84751 20.9273ZM8.95308 19.1384C10.8082 18.2109 13.301 17.666 16 17.666C18.6989 17.666 21.1917 18.2109 23.0468 19.1384C24.8421 20.0361 26.3333 21.4612 26.3333 23.3327C26.3333 25.2042 24.8421 26.6293 23.0468 27.5269C21.1917 28.4545 18.6989 28.9993 16 28.9993C13.301 28.9993 10.8082 28.4545 8.95308 27.5269C7.15778 26.6293 5.66663 25.2042 5.66663 23.3327C5.66663 21.4612 7.15778 20.0361 8.95308 19.1384Z" fill="black"/>
<path fill-rule="evenodd" clip-rule="evenodd" d="M16 5C13.6067 5 11.6666 6.9401 11.6666 9.33333C11.6666 11.7266 13.6067 13.6667 16 13.6667C18.3932 13.6667 20.3333 11.7266 20.3333 9.33333C20.3333 6.9401 18.3932 5 16 5ZM9.66663 9.33333C9.66663 5.83553 12.5022 3 16 3C19.4978 3 22.3333 5.83553 22.3333 9.33333C22.3333 12.8311 19.4978 15.6667 16 15.6667C12.5022 15.6667 9.66663 12.8311 9.66663 9.33333Z" fill="black"/>
</svg>
