<svg width="32" height="32" viewBox="0 0 32 32" fill="none" xmlns="http://www.w3.org/2000/svg">
<path d="M14.5001 16C14.5001 16.3978 14.6581 16.7794 14.9394 17.0607C15.2207 17.342 15.6022 17.5 16.0001 17.5C16.3979 17.5 16.7794 17.342 17.0607 17.0607C17.342 16.7794 17.5001 16.3978 17.5001 16C17.5001 15.6022 17.342 15.2206 17.0607 14.9393C16.7794 14.658 16.3979 14.5 16.0001 14.5C15.6022 14.5 15.2207 14.658 14.9394 14.9393C14.6581 15.2206 14.5001 15.6022 14.5001 16ZM20.7501 16C20.7501 16.3978 20.9081 16.7794 21.1894 17.0607C21.4707 17.342 21.8522 17.5 22.2501 17.5C22.6479 17.5 23.0294 17.342 23.3107 17.0607C23.592 16.7794 23.7501 16.3978 23.7501 16C23.7501 15.6022 23.592 15.2206 23.3107 14.9393C23.0294 14.658 22.6479 14.5 22.2501 14.5C21.8522 14.5 21.4707 14.658 21.1894 14.9393C20.9081 15.2206 20.7501 15.6022 20.7501 16ZM8.25006 16C8.25006 16.3978 8.40809 16.7794 8.68939 17.0607C8.9707 17.342 9.35223 17.5 9.75006 17.5C10.1479 17.5 10.5294 17.342 10.8107 17.0607C11.092 16.7794 11.2501 16.3978 11.2501 16C11.2501 15.6022 11.092 15.2206 10.8107 14.9393C10.5294 14.658 10.1479 14.5 9.75006 14.5C9.35223 14.5 8.9707 14.658 8.68939 14.9393C8.40809 15.2206 8.25006 15.6022 8.25006 16ZM28.9126 10.575C28.2063 8.89687 27.1938 7.39062 25.9032 6.09688C24.6216 4.81061 23.1002 3.78819 21.4251 3.0875C19.7063 2.36563 17.8813 2 16.0001 2H15.9376C14.0438 2.00938 12.2094 2.38438 10.4844 3.12188C8.82367 3.82975 7.3165 4.85399 6.04693 6.1375C4.76881 7.42812 3.76568 8.92813 3.07193 10.6C2.35318 12.3313 1.99068 14.1719 2.00006 16.0656C2.01066 18.2358 2.52409 20.3741 3.50006 22.3125V27.0625C3.50006 27.4437 3.65151 27.8094 3.92109 28.079C4.19067 28.3485 4.55631 28.5 4.93756 28.5H9.69068C11.6291 29.476 13.7673 29.9894 15.9376 30H16.0032C17.8751 30 19.6907 29.6375 21.4001 28.9281C23.0667 28.2358 24.5825 27.2253 25.8626 25.9531C27.1532 24.675 28.1688 23.1812 28.8782 21.5156C29.6157 19.7906 29.9907 17.9563 30.0001 16.0625C30.0094 14.1594 29.6407 12.3125 28.9126 10.575ZM24.1907 24.2625C22.0001 26.4313 19.0938 27.625 16.0001 27.625H15.9469C14.0626 27.6156 12.1907 27.1469 10.5376 26.2656L10.2751 26.125H5.87506V21.725L5.73443 21.4625C4.85318 19.8094 4.38443 17.9375 4.37506 16.0531C4.36256 12.9375 5.55318 10.0125 7.73756 7.80937C9.91881 5.60625 12.8344 4.3875 15.9501 4.375H16.0032C17.5657 4.375 19.0813 4.67812 20.5094 5.27812C21.9032 5.8625 23.1532 6.70312 24.2282 7.77812C25.3001 8.85 26.1438 10.1031 26.7282 11.4969C27.3344 12.9406 27.6376 14.4719 27.6313 16.0531C27.6126 19.1656 26.3907 22.0813 24.1907 24.2625Z" fill="black"/>
</svg>
