<svg width="32" height="32" viewBox="0 0 32 32" fill="none" xmlns="http://www.w3.org/2000/svg">
<g opacity="0.6">
<path fill-rule="evenodd" clip-rule="evenodd" d="M18.744 6.20413C17.1477 4.8981 14.8522 4.8981 13.2559 6.20413L5.02303 12.9401C4.39728 13.4521 4.62273 14.4585 5.4071 14.6546C6.73504 14.9866 7.66663 16.1798 7.66663 17.5486V24.0003C7.66663 26.3935 9.60673 28.3336 12 28.3336H20C22.3932 28.3336 24.3333 26.3935 24.3333 24.0003V17.5486C24.3333 16.1798 25.2649 14.9866 26.5928 14.6546C27.3772 14.4585 27.6026 13.4521 26.9769 12.9401L18.744 6.20413ZM11.9895 4.65621C14.3224 2.74741 17.6775 2.74741 20.0105 4.65621L28.2434 11.3922C30.1422 12.9458 29.4581 15.9999 27.0779 16.5949C26.6403 16.7043 26.3333 17.0975 26.3333 17.5486V24.0003C26.3333 27.4981 23.4978 30.3336 20 30.3336H12C8.50216 30.3336 5.66663 27.4981 5.66663 24.0003V17.5486C5.66663 17.0975 5.35963 16.7043 4.92202 16.5949C2.54182 15.9999 1.85768 12.9458 3.75655 11.3922L11.9895 4.65621Z" fill="#664DFF"/>
<path fill-rule="evenodd" clip-rule="evenodd" d="M16 19.666C15.0796 19.666 14.3334 20.4122 14.3334 21.3327C14.3334 22.2532 15.0796 22.9993 16 22.9993C16.9205 22.9993 17.6667 22.2532 17.6667 21.3327C17.6667 20.4122 16.9205 19.666 16 19.666ZM12.3334 21.3327C12.3334 19.3076 13.975 17.666 16 17.666C18.0251 17.666 19.6667 19.3076 19.6667 21.3327C19.6667 23.3577 18.0251 24.9993 16 24.9993C13.975 24.9993 12.3334 23.3577 12.3334 21.3327Z" fill="#664DFF"/>
</g>
</svg>
