<svg width="18" height="18" viewBox="0 0 18 18" fill="none" xmlns="http://www.w3.org/2000/svg">
<path d="M13.8444 12.6658L17.6754 16.4968C18.0009 16.8222 18.0009 17.3499 17.6754 17.6753C17.35 18.0007 16.8224 18.0007 16.4969 17.6753L12.6659 13.8443C11.3828 14.8706 9.75534 15.4844 7.9845 15.4844C3.84236 15.4844 0.484497 12.1265 0.484497 7.98438C0.484497 3.84224 3.84236 0.484375 7.9845 0.484375C12.1266 0.484375 15.4845 3.84224 15.4845 7.98438C15.4845 9.75522 14.8708 11.3827 13.8444 12.6658ZM7.9845 13.8177C11.2062 13.8177 13.8178 11.206 13.8178 7.98438C13.8178 4.76271 11.2062 2.15104 7.9845 2.15104C4.76284 2.15104 2.15116 4.76271 2.15116 7.98438C2.15116 11.206 4.76284 13.8177 7.9845 13.8177Z" fill="#9CA1A7"/>
</svg>
