<svg width="32" height="32" viewBox="0 0 32 32" fill="none" xmlns="http://www.w3.org/2000/svg">
<path d="M9.34265 15.9991C9.34265 15.7339 9.44801 15.4796 9.63554 15.292C9.82308 15.1045 10.0774 14.9991 10.3427 14.9991H15V10.3418C15 10.0766 15.1053 9.82223 15.2929 9.63469C15.4804 9.44715 15.7348 9.3418 16 9.3418C16.2652 9.3418 16.5196 9.44715 16.7071 9.63469C16.8946 9.82223 17 10.0766 17 10.3418V14.9991H21.6573C21.9225 14.9991 22.1769 15.1045 22.3644 15.292C22.552 15.4796 22.6573 15.7339 22.6573 15.9991C22.6573 16.2643 22.552 16.5187 22.3644 16.7062C22.1769 16.8938 21.9225 16.9991 21.6573 16.9991H17V21.6565C17 21.9217 16.8946 22.176 16.7071 22.3636C16.5196 22.5511 16.2652 22.6565 16 22.6565C15.7348 22.6565 15.4804 22.5511 15.2929 22.3636C15.1053 22.176 15 21.9217 15 21.6565V16.9991H10.3427C10.0774 16.9991 9.82308 16.8938 9.63554 16.7062C9.44801 16.5187 9.34265 16.2643 9.34265 15.9991Z" fill="black"/>
<path fill-rule="evenodd" clip-rule="evenodd" d="M9.75595 5.02473C13.9059 4.56467 18.094 4.56467 22.244 5.02473C24.68 5.29673 26.6466 7.2154 26.9319 9.66473C27.4253 13.8741 27.4253 18.1261 26.9319 22.3354C26.6453 24.7847 24.6786 26.7021 22.244 26.9754C18.094 27.4355 13.9059 27.4355 9.75595 26.9754C7.31995 26.7021 5.35329 24.7847 5.06795 22.3354C4.57566 18.1262 4.57566 13.8739 5.06795 9.66473C5.35329 7.2154 7.32129 5.29673 9.75595 5.02473ZM22.0226 7.0114C18.0198 6.56771 13.9801 6.56771 9.97728 7.0114C9.23628 7.0936 8.54462 7.42323 8.01406 7.94702C7.48349 8.47081 7.14501 9.15817 7.05329 9.89806C6.57908 13.9527 6.57908 18.0488 7.05329 22.1034C7.14529 22.843 7.48389 23.5301 8.01443 24.0536C8.54497 24.5772 9.23647 24.9066 9.97728 24.9887C13.9466 25.4314 18.0533 25.4314 22.0226 24.9887C22.7632 24.9063 23.4544 24.5767 23.9847 24.0532C24.5149 23.5297 24.8533 22.8428 24.9453 22.1034C25.4195 18.0488 25.4195 13.9527 24.9453 9.89806C24.8531 9.15885 24.5145 8.47226 23.9843 7.94903C23.454 7.42579 22.763 7.09643 22.0226 7.01406V7.0114Z" fill="black"/>
</svg>
