<svg width="32" height="32" viewBox="0 0 32 32" fill="none" xmlns="http://www.w3.org/2000/svg">
<path d="M25.8866 27.6758C25.3393 27.6762 24.8015 27.5324 24.3275 27.2588C23.8535 26.9851 23.4599 26.5913 23.1866 26.1171L13.302 8.99711C12.896 8.28206 12.7892 7.43553 13.0049 6.64206C13.2205 5.8486 13.7411 5.17257 14.4531 4.76135C15.1652 4.35013 16.0109 4.23708 16.8059 4.44683C17.6009 4.65659 18.2808 5.17215 18.6973 5.88111L28.582 23.0011C28.8551 23.4746 28.9989 24.0115 28.9989 24.5581C28.999 25.1046 28.8553 25.6416 28.5824 26.1151C28.3094 26.5886 27.9167 26.982 27.4436 27.2558C26.9706 27.5296 26.4339 27.6742 25.8873 27.6751L25.8866 27.6758ZM14.442 27.6751H6.1153C5.28897 27.6751 4.49649 27.3469 3.91219 26.7626C3.32789 26.1783 2.99963 25.3858 2.99963 24.5594C2.99963 23.7331 3.32789 22.9406 3.91219 22.3563C4.49649 21.772 5.28897 21.4438 6.1153 21.4438H14.442C15.2682 21.4438 16.0606 21.772 16.6448 22.3562C17.2291 22.9405 17.5573 23.7329 17.5573 24.5591C17.5573 25.3853 17.2291 26.1777 16.6448 26.762C16.0606 27.3462 15.2682 27.6751 14.442 27.6751Z" stroke="black" stroke-miterlimit="10"/>
<path d="M6.11329 27.677C5.56667 27.6762 5.02986 27.5317 4.55673 27.258C4.0836 26.9842 3.6908 26.5908 3.41773 26.1173C3.14466 25.6438 3.00094 25.1067 3.00098 24.5601C3.00102 24.0135 3.14482 23.4765 3.41796 23.003L13.3026 5.88301C13.5043 5.52323 13.7754 5.20709 14.1002 4.95291C14.425 4.69873 14.7971 4.51158 15.1948 4.40232C15.5925 4.29306 16.008 4.26386 16.4171 4.31641C16.8261 4.36896 17.2207 4.50222 17.5779 4.70846C17.9351 4.9147 18.2478 5.18982 18.4978 5.51784C18.7478 5.84587 18.9302 6.22027 19.0344 6.61934C19.1386 7.01841 19.1625 7.4342 19.1047 7.84258C19.047 8.25096 18.9087 8.64381 18.698 8.99834L8.81396 26.1183C8.54047 26.5927 8.14675 26.9866 7.67248 27.2602C7.19821 27.5339 6.66017 27.6776 6.11262 27.677H6.11329Z" stroke="black" stroke-miterlimit="10"/>
</svg>
