<svg width="32" height="32" viewBox="0 0 32 32" fill="none" xmlns="http://www.w3.org/2000/svg">
<path d="M25.3333 22.666V15.7327C24.6667 15.866 24 15.9993 23.3333 15.9993H22.6667V23.9993H9.33333V14.666C9.33333 10.9327 12.2667 7.99935 16 7.99935C16.1333 6.26602 16.9333 4.79935 18 3.59935C17.6 3.06602 16.8 2.66602 16 2.66602C14.5333 2.66602 13.3333 3.86602 13.3333 5.33268V5.73268C9.33333 6.93268 6.66667 10.5327 6.66667 14.666V22.666L4 25.3327V26.666H28V25.3327L25.3333 22.666ZM13.3333 27.9993C13.3333 29.466 14.5333 30.666 16 30.666C17.4667 30.666 18.6667 29.466 18.6667 27.9993H13.3333ZM28 8.66602C28 11.1993 25.8667 13.3327 23.3333 13.3327C20.8 13.3327 18.6667 11.1993 18.6667 8.66602C18.6667 6.13268 20.8 3.99935 23.3333 3.99935C25.8667 3.99935 28 6.13268 28 8.66602Z" fill="black"/>
</svg>
