<svg width="16" height="16" viewBox="0 0 16 16" fill="none" xmlns="http://www.w3.org/2000/svg">
<g clip-path="url(#clip0_430_389)">
<path d="M3.56002 5.52465L3.31469 5.27932C3.08669 5.05065 2.97202 4.93665 2.90336 4.81798C2.81196 4.65968 2.76384 4.48011 2.76384 4.29732C2.76384 4.11453 2.81196 3.93495 2.90336 3.77665C2.97202 3.65798 3.08669 3.54332 3.31469 3.31532C3.54269 3.08732 3.65736 2.97265 3.77602 2.90465C3.93433 2.81325 4.1139 2.76514 4.29669 2.76514C4.47948 2.76514 4.65906 2.81325 4.81736 2.90465C4.93602 2.97265 5.05069 3.08732 5.27869 3.31532L5.52402 3.56065M8.47002 10.434L12.152 14.1167C12.3807 14.3453 12.4947 14.4593 12.6134 14.528C12.7717 14.6194 12.9512 14.6675 13.134 14.6675C13.3168 14.6675 13.4964 14.6194 13.6547 14.528C13.774 14.4593 13.888 14.3453 14.116 14.1167C14.3447 13.8887 14.4587 13.774 14.5274 13.6553C14.6188 13.497 14.6669 13.3174 14.6669 13.1347C14.6669 12.9519 14.6188 12.7723 14.5274 12.614C14.4587 12.4953 14.3447 12.3807 14.116 12.1527L10.434 8.47065M10.9247 7.97932L7.97869 10.926C6.82202 12.0827 6.24336 12.6613 5.52402 12.6613C4.80536 12.6613 4.22669 12.0827 3.06936 10.9253C1.91202 9.76798 1.33336 9.18932 1.33336 8.47065C1.33336 7.75132 1.91202 7.17265 3.06936 6.01598L6.01536 3.06932C7.17202 1.91332 7.75069 1.33398 8.47002 1.33398C9.18869 1.33398 9.76736 1.91265 10.9247 3.06998C12.082 4.22732 12.6607 4.80598 12.6607 5.52465C12.6607 6.24398 12.082 6.82265 10.9247 7.97932Z" stroke="white" stroke-width="1.25"/>
</g>
<defs>
<clipPath id="clip0_430_389">
<rect width="16" height="16" fill="white" transform="matrix(-1 0 0 1 16 0)"/>
</clipPath>
</defs>
</svg>
